<?xml version="1.0" encoding="UTF-8"?>
<svg id="_レイヤー_2" data-name="レイヤー 2" xmlns="http://www.w3.org/2000/svg" viewBox="0 0 399.36 161.82">
  <defs>
    <style>
      .cls-1 {
        fill: #b28247;
      }
    </style>
  </defs>
  <g id="_レイヤー_1-2" data-name="レイヤー 1">
    <g>
      <text/>
      <text/>
      <text/>
      <text/>
      <g>
        <path class="cls-1" d="M78.48,16.11c1.84,16.86-1.46,34.56-4.78,50.88-4.92,8.71-14.54-19.42-17.67-22.72-2.34,7.19-5.04,20.19-7.5,27.7-2.4,10.16-7.36-2.03-8.69-5.93-3.45-9.07-6.3-17.18-9.45-26.93-.72-3.43-39.31,31.43-1.58-11.88,2.68-3.08,4.68,7.72,6.34,11.76,3.25,8.9,6.54,19.56,10.2,28.19,12.46-37.47,2.98-45.4,24.95-6.07,3.39-11.2,4.6-24.48,4.46-36.05.32-4.19-1.22-7.68-.14-11.18,1.54-2.72,3.77.38,3.87,2.24Z"/>
        <path class="cls-1" d="M106.27,48.08v.07c0,.49-.18,1.14-.54,1.95-.36.81-.84,1.72-1.45,2.73-.6,1.01-1.3,2.09-2.1,3.23-.79,1.14-1.62,2.3-2.49,3.47-1.03,1.35-2.1,2.64-3.21,3.89-1.11,1.25-2.31,2.45-3.61,3.62-2.52,2.33-4.78,3.5-6.76,3.5-2.18,0-3.88-.91-5.08-2.73-1.21-1.84-2.03-4.06-2.46-6.67-.43-2.58-.65-5.24-.65-7.98,0-1.14.11-2.93.33-5.35.11-1.21.22-2.26.33-3.13.11-.88.23-1.58.35-2.12.25-1.05.78-1.97,1.6-2.76.83-.83,1.69-1.25,2.6-1.25.49,0,.73.57.73,1.72,0,.76-.06,1.63-.18,2.59-.12.97-.24,1.92-.37,2.86-.23,1.77-.41,3.36-.51,4.76-.11,1.4-.16,2.62-.16,3.65,0,2.29.25,4.58.76,6.87.5,2.36,1.41,3.54,2.73,3.54,1.33,0,2.88-.61,4.65-1.82.88-.63,1.77-1.32,2.65-2.09.88-.76,1.77-1.62,2.65-2.56.92-.94,1.78-1.89,2.6-2.84.81-.95,1.62-1.94,2.43-2.94.81-1.01,1.53-1.95,2.15-2.83.62-.88,1.17-1.68,1.64-2.42.04-.09.11-.26.22-.5.11-.25.21-.37.3-.37l.05.03c.14,0,.25.06.32.19.07.12.15.31.24.56.18.49.26.88.24,1.14ZM88.56,20.71c0,1.46-.31,2.71-.92,3.74-.6,1.03-1.47,1.55-2.62,1.55-.72,0-1.52-.13-2.41-.4-.86-.27-1.3-.71-1.3-1.31,0-1.1.27-2.15.82-3.15.55-1,1.21-1.81,1.99-2.44.63-.45,1.04-.67,1.22-.67,1.03,0,1.82.17,2.38.52.56.35.84,1.07.84,2.17Z"/>
        <path class="cls-1" d="M148.23,51.22c.11-.04.17-.07.19-.07.12,0,.19.13.19.4s-.05.61-.16,1.03c-.11.42-.27.86-.48,1.33s-.46.94-.77,1.41-.65.9-1.03,1.28c-.85.85-1.78,1.65-2.8,2.41-1.02.75-2.09,1.41-3.2,1.97-1.12.56-2.27,1-3.46,1.31-1.19.31-2.39.47-3.6.47-1.3,0-2.43-.25-3.41-.74-.97-.49-1.81-1.15-2.51-1.95s-1.29-1.73-1.76-2.76c-.47-1.03-.85-2.09-1.16-3.16s-.55-2.13-.73-3.16c-.18-1.03-.33-1.95-.45-2.76-.12-.81-.22-1.46-.3-1.95-.08-.49-.19-.74-.31-.74-.43,0-.88.31-1.35.94-.47.63-.95,1.46-1.45,2.49-.5,1.03-1.02,2.2-1.57,3.52-.55,1.31-1.12,2.66-1.7,4.04-.59,1.38-1.19,2.73-1.81,4.04-.62,1.31-1.27,2.49-1.95,3.52-.68,1.03-1.37,1.86-2.08,2.49-.71.63-1.45.94-2.2.94-.76,0-1.37-.36-1.82-1.08-.46-.72-.81-1.64-1.07-2.78-.25-1.13-.42-2.41-.5-3.82-.08-1.41-.12-2.82-.12-4.21,0-1.23.02-2.4.05-3.5.04-1.1.05-2.04.05-2.83,0-.31,0-.59-.03-.82-.02-.24-.04-.45-.05-.66-.02-.2-.04-.4-.05-.61-.02-.2-.03-.44-.03-.71,0-.76.08-1.52.24-2.26.16-.74.37-1.4.62-1.97.25-.57.53-1.04.84-1.4.31-.36.61-.54.92-.54.32,0,.63.06.92.17.29.11.54.33.77.64.22.31.41.75.54,1.3.13.55.2,1.25.2,2.1,0,1.03-.05,2.22-.14,3.55-.09,1.34-.19,2.68-.3,4.02-.11,1.35-.21,2.63-.3,3.84s-.14,2.22-.14,3.03c0,1.1.11,1.65.32,1.65.43,0,.87-.25,1.31-.74.44-.49.88-1.16,1.32-1.99.44-.83.89-1.79,1.35-2.9.46-1.1.91-2.27,1.37-3.5.83-2.29,1.62-4.28,2.37-5.97.75-1.69,1.52-3.11,2.31-4.24.79-1.13,1.65-1.97,2.58-2.52.93-.55,2-.82,3.2-.82.2,0,.38.08.54.25.16.17.3.39.4.67.11.28.19.6.26.94.06.35.09.69.09,1.03,0,1.95.06,3.71.17,5.27.12,1.56.31,2.95.58,4.16s.62,2.26,1.05,3.13c.43.88.96,1.6,1.57,2.19.23.25.56.48.97.69s.87.39,1.37.54c.5.15,1,.26,1.51.35.51.09.98.13,1.39.13.49,0,1.11-.07,1.88-.2.77-.13,1.59-.35,2.47-.64.88-.29,1.79-.66,2.7-1.09.92-.44,1.79-.96,2.6-1.56.27-.2.52-.39.76-.57.23-.18.48-.36.74-.56.26-.19.55-.4.88-.64.33-.24.7-.51,1.14-.82Z"/>
        <path class="cls-1" d="M178.86,39.24c0,.52-.18,1.34-.54,2.47-.36,1.13-.86,2.42-1.49,3.87-.63,1.45-1.37,2.97-2.22,4.56-.85,1.59-1.77,3.1-2.76,4.51-1.01,1.53-2.15,3.01-3.41,4.44-1.26,1.44-2.62,2.71-4.07,3.84-1.45,1.12-2.98,2.02-4.58,2.69-1.6.67-3.25,1.01-4.95,1.01-1.73,0-3.2-.37-4.42-1.1-1.22-.73-2.21-1.69-2.97-2.88-.77-1.19-1.32-2.54-1.68-4.04-.35-1.5-.53-3.04-.53-4.61,0-1.41.11-2.84.33-4.29.22-1.45.53-2.86.93-4.24.41-1.38.89-2.7,1.45-3.96.56-1.26,1.18-2.42,1.87-3.5.43-.7.96-1.43,1.58-2.21.62-.77,1.32-1.49,2.11-2.14.78-.65,1.64-1.19,2.56-1.63.92-.44,1.88-.66,2.89-.66.72,0,1.36.16,1.91.49.55.33,1.01.75,1.38,1.28.37.53.65,1.12.84,1.77.19.65.28,1.3.28,1.95,0,1.32-.2,2.6-.6,3.84s-1.05,2.51-1.95,3.82-2.08,2.69-3.53,4.14c-1.45,1.45-3.23,3.05-5.34,4.8-.13.11-.31.26-.54.44-.23.18-.47.38-.7.59-.23.21-.44.43-.61.64-.17.21-.26.4-.26.56,0,.61.08,1.26.24,1.97.16.71.46,1.36.88,1.95.42.59,1,1.09,1.74,1.5.74.4,1.68.61,2.84.61.81,0,1.65-.13,2.53-.39.87-.26,1.75-.62,2.62-1.08.87-.46,1.73-1.01,2.58-1.65.85-.64,1.65-1.35,2.41-2.14,1.01-1.01,2.03-2.18,3.05-3.52,1.03-1.33,2.03-2.78,3-4.33.97-1.55,1.9-3.18,2.79-4.9.88-1.72,1.69-3.46,2.41-5.23.2-.49.42-.83.66-1.01.24-.18.45-.27.61-.27.22,0,.38.17.49.52.11.35.16.85.16,1.5ZM159.4,38.13c0-.25-.06-.48-.18-.71-.12-.22-.26-.43-.43-.61-.17-.18-.35-.33-.54-.44-.19-.11-.35-.17-.47-.17-.7,0-1.48.36-2.34,1.09-.86.73-1.68,1.74-2.46,3.05-.78,1.3-1.48,2.86-2.1,4.68-.61,1.82-1.03,3.82-1.25,5.99.25-.2.68-.59,1.27-1.18.59-.58,1.24-1.23,1.93-1.95.69-.72,1.38-1.45,2.06-2.19s1.22-1.38,1.64-1.92c.51-.65.94-1.23,1.31-1.75.37-.52.67-.99.89-1.43.22-.44.39-.86.5-1.26s.16-.81.16-1.21Z"/>
        <path class="cls-1" d="M215.25,45.54c0,.7-.25,1.43-.76,2.19-.34.52-.81,1.08-1.41,1.7-.59.62-1.33,1.3-2.22,2.04-.88.74-1.82,1.5-2.81,2.29-.99.79-2.05,1.59-3.19,2.42-1.14.83-2.25,1.65-3.35,2.46-1.1.81-2.22,1.6-3.35,2.39-1.14.79-2.08,1.46-2.83,2.02-.75.56-1.33,1-1.74,1.31-.4.31-.82.75-1.26,1.3s-.96,1.19-1.56,1.94c-1.46,1.82-3.08,3.55-4.87,5.18-.96.88-2.05,1.31-3.27,1.31-.67,0-1.28-.17-1.84-.5-.58-.34-.87-.86-.87-1.58,0-.45.15-.85.43-1.21.54-.67,1.04-1.25,1.5-1.72.46-.47.93-.92,1.42-1.35.49-.43,1.02-.86,1.6-1.31.58-.45,1.25-1,2.03-1.65.94-.78,1.66-1.39,2.16-1.8.5-.42.79-.66.87-.72,1.1-1.01,2.08-2.02,2.93-3.05.86-1.02,1.6-2.06,2.23-3.11,1.28-2.13,1.92-4.54,1.92-7.24,0-.47-.08-1.1-.23-1.89-.15-.79-.38-1.55-.66-2.31-.29-.75-.63-1.4-1.04-1.95-.41-.55-.86-.83-1.37-.83-.54,0-1.07.13-1.59.39-.52.26-1.05.6-1.57,1.03-.52.43-1.03.91-1.53,1.46-.5.55-.99,1.11-1.47,1.67-.96,1.14-1.88,2.41-2.77,3.8-.89,1.39-1.83,2.96-2.83,4.71-.49.88-.91,1.77-1.27,2.69-.36.92-.66,1.81-.91,2.68-.24.86-.43,1.68-.56,2.44-.13.76-.2,1.41-.22,1.95l-.11,2.76c-.04.65-.25,1.16-.63,1.53-.39.37-.86.56-1.42.56-.81,0-1.39-.39-1.74-1.16-.35-.77-.53-1.96-.53-3.55,0-.22,0-.61.03-1.14s.04-1.16.05-1.85c.02-.7.04-1.42.07-2.19.03-.76.05-1.48.07-2.15s.04-1.26.05-1.77.04-.85.05-1.03c.05-1.41.12-2.77.2-4.07.08-1.3.17-2.63.27-3.97.1-1.35.22-2.74.35-4.17.14-1.44.28-2.98.45-4.65.16-1.66.32-3.24.47-4.75.15-1.5.31-2.95.47-4.34.16-1.39.35-2.76.55-4.11.21-1.35.46-2.69.75-4.04.04-.16.11-.46.22-.91.11-.45.25-.9.41-1.35.16-.45.34-.85.53-1.21.19-.36.39-.54.61-.54.14,0,.31,0,.49-.02.18-.01.37,0,.58.02.21.02.41.08.61.17.2.09.38.25.54.47.16.22.29.48.39.76.1.28.17.56.2.84.04.28.06.55.07.81,0,.26.01.48.01.66,0,.31-.09.9-.27,1.77-.18.86-.4,2.01-.65,3.45-.45,2.51-.89,5.09-1.31,7.74-.42,2.65-.76,5.27-1.02,7.88-.09.88-.18,1.83-.27,2.88-.09,1.04-.18,2.12-.26,3.23-.08,1.11-.15,2.24-.22,3.38s-.1,2.24-.12,3.3c.56-1.08,1.14-2.29,1.73-3.65.6-1.36,1.33-2.68,2.19-3.96.87-1.28,1.72-2.42,2.57-3.43.85-1.01,1.77-1.96,2.76-2.86,1.98-1.79,3.82-2.69,5.52-2.69,1.03-.04,1.99.25,2.89.88.9.63,1.69,1.46,2.36,2.49.68,1.03,1.2,2.18,1.57,3.45.37,1.27.54,2.52.53,3.75,0,.81-.26,2.26-.78,4.34-.25,1.03-.51,1.82-.76,2.37-.25.55-.48,1.04-.68,1.46.67-.54,1.4-1.12,2.19-1.75.79-.63,1.6-1.26,2.41-1.9.81-.64,1.61-1.26,2.39-1.87.78-.61,1.5-1.16,2.15-1.65.11-.09.33-.26.65-.52.32-.26.77-.61,1.33-1.06.56-.45,1.08-.88,1.57-1.28.49-.4.94-.76,1.35-1.08.83-.67,1.32-1.01,1.46-1.01.32,0,.55.17.69.5.13.34.2.7.2,1.08Z"/>
        <path class="cls-1" d="M248.59,43.16c0,.76-.18,1.58-.53,2.44-.35.86-.74,1.66-1.18,2.37-1.14,1.91-2.32,3.65-3.56,5.23-1.23,1.58-2.48,3.08-3.75,4.49-1.32,1.48-2.63,2.64-3.93,3.47s-2.48,1.25-3.53,1.24c-.45,0-.9-.13-1.34-.4-.44-.27-.86-.62-1.24-1.06s-.73-.95-1.03-1.53c-.3-.58-.53-1.19-.69-1.82-.09-.34-.17-.72-.24-1.16-.07-.44-.14-.84-.22-1.21-.07-.37-.15-.68-.24-.94-.09-.26-.19-.39-.3-.39-.07,0-.23.15-.46.44s-.51.67-.82,1.13c-.32.46-.65.98-1.01,1.55-.36.57-.72,1.13-1.07,1.67-.35.54-.67,1.03-.95,1.48-.28.45-.5.79-.66,1.01-.56.79-1.22,1.59-1.99,2.41-.77.82-1.53,1.56-2.3,2.24-.77.67-1.47,1.22-2.11,1.65-.64.43-1.11.64-1.42.64-.68,0-1.35-.14-1.99-.42-.64-.28-1.2-.69-1.69-1.23s-.88-1.2-1.18-1.99c-.3-.79-.45-1.68-.45-2.69,0-1.66.27-3.56.8-5.69.53-2.13,1.24-4.3,2.11-6.5.88-2.2,1.88-4.31,3.02-6.35,1.14-2.03,2.32-3.78,3.54-5.23,1.42-1.68,2.92-2.92,4.47-3.72,1.56-.8,3.16-1.19,4.8-1.19.31,0,.57.08.8.24.23.16.42.36.58.61.16.25.31.52.43.82.13.3.25.61.38.93.07.2.23.43.46.67.23.25.48.5.73.76.25.26.47.51.66.76.19.25.28.48.28.71,0,.47-.08.99-.23,1.57-.15.57-.32,1.23-.5,1.99-.18.75-.35,1.6-.5,2.56-.15.95-.23,2.05-.23,3.28,0,.81.06,1.73.18,2.76.12,1.03.3,2.01.54,2.95.24.93.55,1.71.93,2.34s.82.94,1.33.94c.61,0,1.23-.22,1.84-.66.61-.44,1.32-1.05,2.11-1.83,1.77-1.75,3.44-3.67,5.03-5.76,1.59-2.09,3.21-4.16,4.87-6.23.29-.36.56-.54.81-.54.42,0,.62.4.62,1.21ZM227.45,39.29s-.03-.17-.08-.37c-.05-.2-.14-.41-.24-.62-.11-.21-.24-.4-.39-.57s-.32-.25-.5-.25h-.05c-.67.09-1.38.36-2.14.82-.76.46-1.56,1.17-2.41,2.12s-1.74,2.18-2.68,3.69c-.94,1.5-1.91,3.33-2.92,5.49-.31.65-.64,1.36-1.01,2.14-.37.77-.72,1.63-1.06,2.56s-.61,1.92-.84,2.98c-.23,1.06-.34,2.17-.34,3.33,0,.7.2,1.22.61,1.58.41.36.82.54,1.26.54s1.04-.31,1.76-.93c.72-.62,1.5-1.44,2.34-2.46.84-1.02,1.69-2.19,2.57-3.5.87-1.31,1.68-2.67,2.43-4.06.75-1.39,1.4-2.76,1.95-4.11.55-1.35.92-2.57,1.12-3.67.05-.34.12-.73.19-1.19.07-.46.14-.92.2-1.38.06-.46.12-.89.16-1.28.04-.39.07-.68.07-.86Z"/>
        <path class="cls-1" d="M270.57,41.82c0,.65-.14,1.19-.43,1.63-.29.44-.64.66-1.05.66-.65,0-1.15-.14-1.5-.4-.35-.27-.66-.56-.93-.88-.27-.31-.54-.61-.82-.88-.28-.27-.67-.4-1.18-.4-.45,0-.94.18-1.46.54-.52.36-1.05.82-1.6,1.4-.54.57-1.08,1.22-1.61,1.94-.53.72-1.04,1.45-1.53,2.19-.34.52-.72,1.13-1.12,1.83-.41.71-.81,1.45-1.2,2.22-.4.77-.77,1.55-1.11,2.32-.34.77-.62,1.5-.84,2.17-.16.52-.34,1.07-.54,1.67-.2.6-.39,1.21-.58,1.85s-.36,1.3-.51,1.97c-.15.67-.28,1.34-.37,1.99-.11.94-.21,1.82-.31,2.62-.1.81-.22,1.52-.35,2.12-.14.61-.31,1.08-.53,1.41-.22.34-.5.51-.84.51-.63,0-1.15-.12-1.55-.37s-.73-.58-.96-.99c-.23-.42-.4-.89-.5-1.43-.1-.54-.17-1.1-.2-1.68-.05-.94-.11-1.84-.18-2.69s-.12-1.72-.19-2.59c-.06-.88-.11-1.81-.15-2.79-.04-.99-.05-2.11-.05-3.37,0-1.19.04-2.5.11-3.94.07-1.44.16-2.82.26-4.14.1-1.32.21-2.5.33-3.52.12-1.02.22-1.7.31-2.04.16-.56.37-1.11.62-1.63.25-.53.53-1,.83-1.41.3-.42.61-.75.93-.99.33-.25.62-.37.89-.37.23,0,.47.04.72.12.24.08.46.22.65.42.19.2.34.47.46.81.12.34.18.75.17,1.25,0,.18-.09.62-.26,1.33-.17.71-.37,1.52-.58,2.44-.22.92-.43,1.89-.64,2.9-.21,1.01-.35,1.9-.42,2.66,0,.16,0,.46-.03.91-.02.45-.04.97-.05,1.57-.02.6-.04,1.23-.06,1.9-.02.67-.03,1.31-.03,1.92,0,.43,0,.81.01,1.14,0,.34.02.62.04.84.16-.38.36-.9.58-1.57.23-.66.49-1.39.78-2.19.3-.8.61-1.6.95-2.42.33-.82.69-1.59,1.07-2.31.4-.76.84-1.59,1.34-2.49.5-.9,1.03-1.79,1.61-2.69.58-.9,1.19-1.77,1.85-2.63.66-.85,1.34-1.6,2.06-2.25.71-.65,1.46-1.17,2.23-1.56.78-.39,1.57-.59,2.38-.59.87,0,1.62.17,2.26.52.64.35,1.17.81,1.59,1.38.42.57.73,1.22.93,1.94.2.72.3,1.44.3,2.15Z"/>
      </g>
      <text/>
      <g>
        <path class="cls-1" d="M93.32,98.27c0,1.45-.87,3.23-2.6,5.36-.43.54-.95,1.13-1.58,1.79-.62.65-1.28,1.31-1.98,1.98s-1.39,1.33-2.1,1.98c-.7.65-1.36,1.25-1.98,1.79-1.96,1.73-4.01,3.36-6.16,4.9s-4.31,2.9-6.49,4.06c-2.19,1.17-4.36,2.09-6.54,2.77-2.17.68-4.27,1.02-6.29,1.02-2.21,0-4.12-.36-5.76-1.09-1.63-.72-2.99-1.75-4.06-3.08s-1.87-2.94-2.4-4.82c-.53-1.88-.8-3.98-.8-6.29-.02-2.1.17-4.24.57-6.41s.95-4.31,1.67-6.41c.71-2.1,1.57-4.13,2.57-6.08,1-1.95,2.09-3.75,3.28-5.41.71-1,1.52-2.03,2.42-3.06.9-1.04,1.84-2.05,2.83-3.03.99-.98,2-1.9,3.02-2.75,1.02-.85,2.02-1.61,3-2.26.63-.42,1.44-.91,2.42-1.47s2.01-1.09,3.09-1.58c1.08-.49,2.15-.9,3.22-1.24,1.06-.34,1.98-.51,2.76-.51,1.25,0,2.24.1,2.99.3.75.2,1.4.53,1.98,1,.26.23.58.59.93,1.07.36.48.69,1,1.01,1.58.32.57.58,1.14.8,1.72.21.57.32,1.06.32,1.45s-.16.99-.49,1.79c-.33.79-.7,1.62-1.13,2.47-.43.85-.86,1.65-1.29,2.38s-.76,1.24-.98,1.52c-.84,1.05-1.74,1.58-2.7,1.58-.82,0-1.45-.29-1.91-.86-.46-.57-.69-1.29-.69-2.15,0-.3.15-.78.46-1.42.31-.64.82-1.37,1.53-2.19s1.27-1.57,1.67-2.26c.4-.69.65-1.15.75-1.38-.41-.33-.91-.58-1.5-.77-.59-.19-1.14-.28-1.65-.28-.74,0-1.64.19-2.73.58-1.08.39-2.19.88-3.32,1.49-1.13.61-2.24,1.28-3.31,2.01s-1.98,1.44-2.71,2.12c-2.1,1.98-4.04,4.12-5.82,6.41-1.78,2.29-3.25,4.82-4.41,7.6-.47,1.14-.91,2.34-1.33,3.59-.42,1.25-.78,2.52-1.09,3.8-.31,1.28-.55,2.56-.72,3.84-.17,1.27-.26,2.49-.26,3.66,0,1.38.14,2.66.41,3.85s.73,2.22,1.36,3.08c.63.86,1.47,1.54,2.5,2.03,1.03.49,2.3.74,3.81.74,1.63,0,3.31-.26,5.02-.77,1.72-.51,3.43-1.21,5.13-2.08,1.7-.88,3.39-1.88,5.07-3.01,1.67-1.13,3.28-2.32,4.82-3.55,1.54-1.24,3.01-2.47,4.4-3.71,1.39-1.24,2.65-2.4,3.8-3.5.47-.44.96-.93,1.49-1.47.52-.54,1.04-1.07,1.55-1.61.51-.54,1.01-1.07,1.49-1.61.48-.54.9-1.03,1.27-1.47.92.54,1.38,1.31,1.38,2.31Z"/>
        <path class="cls-1" d="M139.58,104.35c-3.4,6.71-18.57,23.5-25.81,14.12-2.42-3.75-1.32-9.61-3.35-13.58-6.68-.85-12.22,13.47-16.66,17.94-1.54,1.83-4.26,3.97-6.27,1.63-.66-3.71,1.3-7.73,1.58-11.54,2.45-10.32,2.35-21.31,5.11-31.44,4.09-5.51,5.83,3.29,4.56,6.65-1.07,9.48-6.74,20.27-5.33,29.22,3.75-5.24,14-24.69,21.12-16.47,2.36,4.51-.11,12.72,4.66,15.38,6.02,1.76,20.94-16.87,20.39-11.92Z"/>
        <path class="cls-1" d="M160.59,104.46c-.23.45-.59,1-1.05,1.66-.47.65-1,1.35-1.58,2.08s-1.2,1.46-1.83,2.2-1.23,1.39-1.77,1.98c-1.86,2.03-3.6,3.78-5.24,5.26-1.64,1.48-3.19,2.69-4.64,3.65s-2.83,1.67-4.12,2.12c-1.29.46-2.52.69-3.69.69-1,0-1.87-.21-2.62-.62s-1.39-.97-1.9-1.68-.9-1.55-1.16-2.52-.38-2.01-.38-3.12c0-1.04.03-2.16.09-3.38.06-1.22.14-2.42.23-3.6.1-1.18.2-2.27.31-3.28.11-1.01.22-1.81.34-2.42.06-.33.11-.7.15-1.11s.07-.82.09-1.22c.02-.4.03-.79.04-1.16,0-.37.01-.67.01-.91,0-.21.08-.56.23-1.03s.39-.94.69-1.42c.3-.48.66-.9,1.08-1.26.42-.36.89-.54,1.42-.54.82,0,1.46.17,1.9.51.45.34.67.97.67,1.89,0,.23-.07.65-.21,1.25-.14.6-.3,1.31-.5,2.15-.2.84-.42,1.77-.66,2.8s-.46,2.09-.66,3.19c-.2,1.1-.36,2.22-.5,3.35-.14,1.13-.21,2.22-.21,3.25,0,.84.07,1.62.22,2.33.15.71.34,1.33.59,1.85.24.52.53.92.86,1.22s.68.44,1.05.44c.94,0,1.87-.17,2.8-.51.93-.34,1.95-.92,3.06-1.74s2.36-1.9,3.74-3.25,2.99-3.02,4.85-5.01c.62-.66,1.2-1.28,1.73-1.86.53-.58,1.04-1.15,1.55-1.71.51-.57,1.04-1.17,1.61-1.8.57-.63,1.2-1.36,1.9-2.18.2-.25.45-.38.76-.38.33,0,.63.16.89.47.26.31.4.76.4,1.35,0,.27-.04.59-.12.94s-.22.72-.44,1.11ZM144.57,80.46c0,.47-.13,1.07-.38,1.82-.25.74-.56,1.46-.91,2.17s-.72,1.3-1.1,1.8-.69.75-.92.75-.55-.03-.94-.1c-.39-.07-.77-.18-1.14-.32s-.69-.33-.97-.54c-.27-.21-.41-.47-.41-.76s.05-.56.15-.79.21-.48.32-.73c.12-.25.22-.54.32-.85.1-.31.15-.68.15-1.11,0-.88.22-1.64.67-2.29s1.06-.97,1.85-.97c.2,0,.48.01.85.03.37.02.74.09,1.1.21s.68.31.95.57.41.64.41,1.13Z"/>
        <path class="cls-1" d="M201.08,101.49c0,.61-.27,1.24-.82,1.9-.37.45-.88.94-1.52,1.48-.64.54-1.45,1.13-2.4,1.77s-1.97,1.31-3.05,1.99c-1.07.68-2.23,1.39-3.46,2.11-1.23.72-2.44,1.44-3.63,2.14s-2.4,1.4-3.63,2.08c-1.23.68-2.25,1.27-3.06,1.76-.81.49-1.44.87-1.89,1.14-.43.27-.88.65-1.36,1.13-.48.48-1.04,1.04-1.68,1.68-1.58,1.58-3.34,3.09-5.27,4.51-1.04.76-2.22,1.14-3.54,1.14-.72,0-1.39-.15-1.99-.44-.62-.29-.94-.75-.94-1.38,0-.39.16-.74.47-1.05.59-.59,1.13-1.08,1.63-1.49s1.01-.8,1.54-1.17c.53-.37,1.1-.75,1.73-1.14.62-.39,1.36-.87,2.2-1.44,1.02-.68,1.8-1.21,2.34-1.57.55-.36.86-.57.94-.63,1.19-.88,2.25-1.76,3.18-2.65.93-.89,1.73-1.79,2.42-2.71,1.39-1.86,2.08-3.96,2.08-6.3,0-.41-.08-.96-.25-1.64-.17-.68-.41-1.35-.72-2.01-.31-.65-.69-1.22-1.13-1.7-.44-.48-.93-.72-1.48-.72-.59,0-1.16.11-1.73.34-.57.22-1.13.52-1.7.89-.57.37-1.12.8-1.66,1.27-.54.48-1.07.96-1.6,1.45-1.04,1-2.04,2.1-3,3.31-.97,1.21-1.99,2.58-3.06,4.1-.53.76-.99,1.54-1.38,2.34-.39.8-.72,1.58-.98,2.33-.26.75-.46,1.46-.6,2.12-.14.66-.21,1.23-.23,1.7l-.12,2.4c-.04.57-.27,1.01-.69,1.33s-.93.48-1.54.48c-.88,0-1.51-.34-1.89-1.01s-.57-1.7-.57-3.09c0-.19,0-.53.03-1s.04-1.01.06-1.61c.02-.6.04-1.24.07-1.9.03-.66.05-1.29.07-1.88s.04-1.1.06-1.54.04-.74.06-.89c.06-1.23.13-2.41.22-3.54.09-1.13.19-2.29.29-3.46s.23-2.38.38-3.63c.15-1.25.31-2.6.48-4.04.18-1.45.35-2.82.51-4.13.17-1.31.34-2.57.51-3.78.18-1.21.38-2.4.6-3.57s.49-2.34.81-3.52c.04-.14.12-.4.23-.79.12-.39.26-.78.44-1.17.18-.39.37-.74.57-1.05.21-.31.42-.47.66-.47.16,0,.33,0,.53-.01.2,0,.41,0,.63.01.22.02.44.07.66.15.21.08.41.22.59.41.18.2.32.42.42.66.11.24.18.49.22.73.04.24.06.48.07.7,0,.22.01.42.01.57,0,.27-.1.79-.29,1.54-.2.75-.43,1.75-.7,3-.49,2.19-.96,4.43-1.42,6.74-.46,2.3-.83,4.59-1.1,6.86-.1.76-.2,1.6-.29,2.5s-.19,1.85-.28,2.81-.17,1.95-.23,2.94-.11,1.95-.13,2.87c.61-.94,1.23-2,1.88-3.18.64-1.18,1.44-2.33,2.37-3.44s1.87-2.11,2.78-2.99,1.91-1.71,2.99-2.49c2.15-1.56,4.14-2.34,5.98-2.34,1.11-.04,2.16.22,3.13.76.98.55,1.83,1.27,2.56,2.17.73.9,1.3,1.9,1.7,3,.4,1.1.59,2.19.57,3.27,0,.7-.28,1.96-.85,3.78-.27.9-.55,1.59-.82,2.07-.27.48-.52.9-.73,1.27.72-.47,1.51-.98,2.37-1.52.86-.55,1.73-1.1,2.61-1.66s1.74-1.1,2.59-1.63,1.63-1.01,2.33-1.44c.12-.08.35-.23.7-.45.35-.22.83-.53,1.44-.92.61-.39,1.17-.76,1.7-1.11s1.02-.66,1.46-.94c.9-.59,1.43-.88,1.58-.88.35,0,.6.15.75.44s.22.61.22.94Z"/>
        <path class="cls-1" d="M224.91,115.85c0,.31-.06.67-.19,1.07-.13.4-.33.81-.6,1.22-.35.61-.82,1.23-1.39,1.86-.58.63-1.22,1.21-1.93,1.73-.71.52-1.49.94-2.33,1.27-.84.33-1.71.5-2.61.5-1.17,0-2.18-.26-3.03-.79s-1.58-1.25-2.2-2.15-1.12-1.97-1.52-3.18c-.4-1.21-.73-2.49-.98-3.84-.86,1.25-1.88,2.49-3.06,3.72s-2.4,2.34-3.66,3.33c-1.26.99-2.5,1.79-3.72,2.4s-2.3.92-3.24.92c-.62,0-1.23-.16-1.8-.47-.58-.31-1.08-.73-1.52-1.26s-.79-1.13-1.04-1.82c-.25-.68-.38-1.41-.38-2.17s.06-1.56.19-2.4c.13-.84.34-1.74.64-2.71s.69-2.02,1.17-3.15c.48-1.13,1.07-2.37,1.77-3.72.78-1.52,1.71-2.96,2.78-4.32,1.07-1.36,2.17-2.55,3.28-3.57s2.17-1.84,3.18-2.43c1.01-.6,1.82-.89,2.45-.89.18,0,.38.04.6.12.22.08.46.16.7.25s.48.17.7.23c.22.07.42.1.57.1s.31-.03.47-.1c.16-.07.31-.15.47-.23s.31-.17.47-.25c.16-.08.31-.12.47-.12.23,0,.49.08.76.23.27.16.54.36.79.6.25.24.48.52.67.83.2.31.33.62.41.91.08.35.18.61.31.78.13.17.25.32.38.45.13.14.23.3.32.48.09.19.13.47.13.86,0,.2-.07.61-.21,1.23-.14.63-.29,1.35-.45,2.18-.17.83-.32,1.69-.45,2.59-.14.9-.21,1.72-.21,2.46,0,2.09.12,3.8.35,5.13.23,1.33.56,2.38.97,3.15.41.77.89,1.3,1.45,1.6s1.15.44,1.77.44c1.48,0,2.7-.25,3.65-.76.95-.51,1.79-1.26,2.53-2.26.21-.27.4-.52.56-.73.16-.21.31-.32.47-.32.27,0,.52.11.75.32.22.22.34.44.34.67ZM208.53,102.79c0-1.46-.22-2.52-.66-3.16s-.94-.97-1.51-.97c-.49,0-.98.09-1.48.28-.5.19-.97.42-1.42.72s-.86.62-1.23.97-.67.69-.91,1.03c-.47.63-.96,1.34-1.48,2.14-.52.8-1.04,1.64-1.55,2.52s-1.01,1.78-1.48,2.7c-.47.92-.88,1.81-1.25,2.68-.36.87-.65,1.7-.86,2.49s-.32,1.5-.32,2.12c0,.92.18,1.66.53,2.21s1.02.83,1.99.83c.33,0,.82-.21,1.46-.63.64-.42,1.33-.95,2.07-1.6s1.45-1.34,2.15-2.09c.7-.75,1.28-1.47,1.73-2.15.49-.72.98-1.51,1.48-2.37.5-.86.95-1.74,1.36-2.64.41-.9.74-1.78,1-2.65.25-.87.38-1.67.38-2.42Z"/>
        <path class="cls-1" d="M294.74,71.72c3.33,1.82-50.72,7.76-53.04,8.19-3.56-.18-7.86.5-11.35,1.44-5.15.95-2.98,11.07-4.32,15.2-1.06,6.41-.52,12.86-.07,19.16-.5,2.5-3.32,2.81-4.51.59-1.6-3.15-1.17-7.36-1.23-10.77.56-23.32,9.14-23.77-9.71-21.12-2.56,0-5.22,1-7.19-.88-1.49-5.95,15.11-3.31,19.17-5.1,6.23.13,49.3-19.22,72.26-6.71Z"/>
        <path class="cls-1" d="M261.09,103.35c0,.29-.21.81-.64,1.55-1.02,1.46-2.15,2.93-3.41,4.39s-2.6,2.86-4.01,4.17-2.89,2.55-4.42,3.69-3.08,2.13-4.64,2.96c-1.56.83-3.12,1.47-4.67,1.92-1.55.45-3.05.66-4.5.64-3.12,0-5.55-.91-7.28-2.72s-2.59-4.56-2.59-8.23c0-3.07.47-6.04,1.42-8.94.95-2.89,2.56-5.67,4.85-8.35.43-.47.91-.92,1.45-1.35.54-.43,1.1-.81,1.7-1.14.6-.33,1.21-.6,1.85-.79.63-.19,1.27-.31,1.92-.35.16,0,.37.02.64.06.27.04.57.11.88.21.31.1.62.22.91.37s.53.33.7.54c.55.63.98,1.27,1.3,1.93.32.66.5,1.4.54,2.2.04.9-.06,1.78-.31,2.65-.24.87-.65,1.76-1.23,2.67s-1.33,1.85-2.27,2.81-2.07,2.01-3.4,3.12c-.84.7-1.77,1.48-2.8,2.33s-2.26,1.74-3.71,2.68c0,1.89.57,3.34,1.71,4.32,1.14.99,2.71,1.48,4.7,1.48,1.11,0,2.24-.15,3.37-.44s2.25-.68,3.34-1.16c1.09-.48,2.15-1.03,3.18-1.64s1.99-1.25,2.89-1.89c1.66-1.21,3.16-2.42,4.51-3.62s2.69-2.47,4.01-3.79l1.58-1.58c.96-.84,1.65-1.26,2.08-1.26.23,0,.35.19.35.56ZM238.71,97.52c-.02-.29-.06-.58-.13-.86-.07-.28-.17-.53-.31-.75-.14-.21-.29-.39-.47-.51-.18-.13-.38-.19-.62-.19-1.04.06-2.07.69-3.11,1.89s-2.01,2.79-2.93,4.76c-.21.43-.41.91-.57,1.45-.17.54-.32,1.08-.47,1.64s-.27,1.11-.38,1.66c-.11.55-.2,1.04-.28,1.46l2.81-2.11c.86-.64,1.66-1.31,2.4-1.99.47-.43.95-.89,1.44-1.39s.93-1.02,1.33-1.57c.4-.55.72-1.11.95-1.7s.34-1.18.32-1.79Z"/>
        <path class="cls-1" d="M289.84,96.55c0,.29-.09.71-.26,1.26-.18.55-.42,1.15-.72,1.82-.3.66-.65,1.35-1.05,2.07-.4.71-.83,1.37-1.27,1.98-1.37,1.86-2.71,3.53-4.03,5.02s-2.64,2.86-3.96,4.09-2.66,2.34-4.01,3.34-2.75,1.9-4.17,2.72c-1,.57-1.9,1.03-2.72,1.38s-1.63.62-2.43.81c-.8.19-1.63.31-2.48.37s-1.79.09-2.83.09-1.99-.17-2.86-.5c-.87-.33-1.62-.84-2.24-1.54-.62-.69-1.11-1.57-1.46-2.64-.35-1.06-.53-2.33-.53-3.79,0-.82.12-1.76.35-2.83.23-1.06.56-2.18.97-3.34.41-1.16.89-2.34,1.45-3.53.56-1.19,1.16-2.33,1.8-3.41s1.32-2.08,2.04-3c.71-.92,1.43-1.68,2.15-2.29.39-.33.88-.65,1.46-.97.59-.31,1.19-.59,1.82-.83.62-.24,1.25-.44,1.86-.59s1.15-.22,1.6-.22c.61,0,1.24.15,1.9.44s1.27.66,1.83,1.1,1.01.92,1.36,1.44c.35.52.53,1.01.53,1.48,0,.35-.06.71-.18,1.08-.12.37-.27.71-.47,1.03-.2.31-.41.57-.64.78s-.48.31-.73.31c-.45,0-.81-.19-1.08-.57s-.54-.8-.81-1.26c-.26-.46-.56-.88-.89-1.26s-.79-.57-1.38-.57c-.88,0-1.74.31-2.59.94-.85.63-1.67,1.44-2.45,2.45-.78,1.01-1.5,2.13-2.17,3.37-.66,1.24-1.24,2.48-1.73,3.72-.49,1.24-.87,2.41-1.14,3.52-.27,1.1-.41,2.02-.41,2.74,0,.8.15,1.48.45,2.04s.69,1.01,1.17,1.36,1.02.61,1.61.76c.6.16,1.19.23,1.77.23.66,0,1.42-.1,2.27-.29.85-.19,1.7-.45,2.56-.76.86-.31,1.69-.66,2.49-1.05.8-.39,1.49-.79,2.08-1.2,1.54-1.05,3.09-2.29,4.63-3.71,1.54-1.42,3.01-2.9,4.41-4.47,1.4-1.56,2.69-3.14,3.87-4.75,1.18-1.6,2.19-3.12,3.03-4.57.16-.25.32-.43.5-.54.18-.11.35-.16.53-.16.31,0,.59.11.83.32.24.22.37.42.37.62Z"/>
        <path class="cls-1" d="M325.5,100.53c0,.18-.02.46-.06.86-.04.4-.09.82-.16,1.26s-.14.85-.22,1.25c-.08.39-.16.66-.23.82-.74,1.35-1.6,2.64-2.56,3.88-.97,1.24-2.01,2.33-3.12,3.27s-2.27,1.69-3.46,2.26c-1.19.57-2.38.85-3.57.85s-2.13-.15-2.94-.44-1.49-.68-2.04-1.17c-.55-.49-.98-1.04-1.3-1.66s-.58-1.25-.76-1.89-.33-1.27-.42-1.89-.19-1.17-.26-1.66c-.06-.35-.09-.76-.09-1.23,0-.8.05-1.69.15-2.68.1-.99.15-1.91.15-2.77,0-.6-.04-1.13-.13-1.57s-.25-.75-.48-.92c-.43.39-.83.82-1.22,1.29s-.79.97-1.22,1.51c-.43.54-.89,1.12-1.38,1.74-.49.63-1.04,1.29-1.67,1.99-.14.16-.38.53-.72,1.11s-.75,1.3-1.23,2.15-1.01,1.78-1.58,2.8c-.58,1.02-1.18,2.05-1.8,3.09-.62,1.04-1.25,2.06-1.89,3.05-.63.99-1.24,1.86-1.8,2.62s-1.09,1.37-1.58,1.83c-.49.46-.89.69-1.2.69-.35,0-.64-.03-.86-.09s-.42-.12-.59-.18-.31-.12-.44-.18-.26-.09-.4-.09c-.16-.55-.27-1.2-.35-1.96s-.14-1.53-.18-2.3c-.04-.77-.06-1.48-.07-2.14,0-.65-.01-1.15-.01-1.48,0-2.62.19-5.37.57-8.26.38-2.89.83-5.92,1.36-9.1.53-3.17,1.07-6.49,1.64-9.96.57-3.47,1.04-7.09,1.41-10.88.12-.55.29-1.04.51-1.46.22-.43.46-.8.72-1.1.25-.3.5-.53.75-.69.24-.16.43-.23.57-.23h.03c.29.04.58.18.86.42.28.24.53.56.75.95.21.39.39.83.53,1.3.14.48.21.97.21,1.48,0,.37-.04.7-.12,1-.14.63-.25,1.16-.35,1.6s-.19.85-.28,1.23-.17.75-.23,1.1-.15.75-.23,1.2c-.09.45-.19.98-.29,1.58-.11.61-.24,1.33-.4,2.17-.02.16-.08.55-.19,1.19-.11.63-.24,1.42-.4,2.34-.16.93-.33,1.97-.53,3.12-.2,1.15-.39,2.32-.59,3.5-.2,1.18-.39,2.34-.57,3.49s-.35,2.18-.5,3.12-.26,1.72-.35,2.36c-.09.63-.13,1.04-.13,1.22,0,.2-.01.45-.04.76-.03.31-.06.65-.09,1.03-.03.37-.05.76-.07,1.16-.02.4-.03.8-.03,1.19s.01.76.04,1.1c.03.34.09.64.19.89.49-.37,1.01-.87,1.57-1.51.56-.63,1.13-1.34,1.73-2.12.6-.78,1.2-1.61,1.82-2.49s1.23-1.75,1.85-2.62c.62-.87,1.21-1.7,1.79-2.5.58-.8,1.13-1.5,1.66-2.11.23-.43.55-.91.94-1.44s.81-1.05,1.25-1.57c.44-.52.89-1,1.35-1.44s.87-.81,1.25-1.1c.8-.6,1.52-.98,2.17-1.11.64-.14,1.25-.21,1.82-.21.2,0,.38.14.54.42.17.28.32.63.45,1.03.14.4.24.83.32,1.27.08.45.12.84.12,1.17,0,.31-.04.75-.13,1.32-.09.57-.18,1.2-.28,1.9s-.19,1.44-.28,2.2-.13,1.49-.13,2.2c0,.12,0,.24.01.37,0,.13.01.25.01.37.04.55.1,1.21.19,1.98.09.77.27,1.51.56,2.23.28.71.69,1.32,1.23,1.82s1.27.75,2.21.75,1.88-.18,2.75-.54c.88-.36,1.75-.89,2.62-1.58.87-.69,1.75-1.54,2.65-2.55.9-1.01,1.85-2.16,2.84-3.47.35-.45.73-.83,1.14-1.14.41-.31.69-.47.85-.47.08,0,.12.04.12.12Z"/>
      </g>
    </g>
  </g>
</svg>